<?xml version="1.0" encoding="UTF-8" standalone="no"?><!DOCTYPE svg PUBLIC "-//W3C//DTD SVG 1.1//EN" "http://www.w3.org/Graphics/SVG/1.1/DTD/svg11.dtd"><svg width="100%" height="100%" viewBox="0 0 411 383" version="1.1" xmlns="http://www.w3.org/2000/svg" xmlns:xlink="http://www.w3.org/1999/xlink" xml:space="preserve" xmlns:serif="http://www.serif.com/" style="fill-rule:evenodd;clip-rule:evenodd;stroke-linecap:round;stroke-linejoin:round;stroke-miterlimit:1.5;"><g><path d="M255.423,145.274l104.071,28.871l-155.758,47.842l-155.758,-47.842l111.471,-28.871" style="fill:none;stroke:#aa1616;stroke-width:8.97px;"/><path d="M48.103,175.644l-42.892,59.826l157.639,53.259l45.027,-66.742l-159.774,-46.343Z" style="fill:none;stroke:#aa1616;stroke-width:10.42px;"/><path d="M359.012,175.593l46.199,62.858l-155.392,53.634l-45.026,-66.743l154.219,-49.749Z" style="fill:none;stroke:#aa1616;stroke-width:10.42px;"/><path d="M206.6,5.274l23.582,72.577l76.312,0l-61.738,44.855l23.582,72.577l-61.738,-44.855l-61.737,44.855l23.581,-72.577l-61.737,-44.855l76.312,0l23.581,-72.577Z" style="fill:none;stroke:#aa1616;stroke-width:10.55px;"/><path d="M357.456,177.09l-148.123,47.358l0,152.947l155.616,-54.911l-0,-64.594" style="fill:none;stroke:#aa1616;stroke-width:9.99px;"/><path d="M208.712,222.144l0,155.32l-155.615,-57.284l-0,-67.281" style="fill:none;stroke:#aa1616;stroke-width:9.99px;"/></g></svg>